Coordinates
version=1
nRows=14
nColumns=24
inDegrees=yes

Units are S.I. units (second, meters, Newtons, ...)
Angles are in degrees.

endheader
time	pelvis_tilt	pelvis_list	pelvis_rotation	pelvis_tx	pelvis_ty	pelvis_tz	hip_flexion_r	hip_adduction_r	hip_rotation_r	knee_angle_r	ankle_angle_r	subtalar_angle_r	mtp_angle_r	hip_flexion_l	hip_adduction_l	hip_rotation_l	knee_angle_l	ankle_angle_l	subtalar_angle_l	mtp_angle_l	lumbar_extension	lumbar_bending	lumbar_rotation
      5.15000000	      4.72171273	      3.24694485	     11.95279402	     -0.67166065	      0.88509489	      0.19540661	     20.87538379	     -3.28376557	     -8.23674713	    -15.32049655	     12.91358178	      6.30851412	      0.00000000	    -27.28645703	      2.31397400	      5.61325859	    -15.27643681	      8.02971380	     -3.31174695	      0.00000000	    -29.70892760	     -0.12842190	    -12.45912574
      5.16000000	      4.76976408	      2.71805857	     11.98015799	     -0.65461268	      0.88312865	      0.19568554	     22.15954370	     -2.80776459	     -8.51737633	    -19.27160692	     13.53201514	      6.39463578	      0.00000000	    -25.79360580	      1.39268651	      3.76649705	    -19.14941827	      6.84367488	     -1.30240590	      0.00000000	    -29.38137239	      0.48625453	    -12.23776220
      5.17000000	      5.10023327	      2.03382749	     12.01351064	     -0.63766129	      0.88168741	      0.19587060	     22.91789864	     -2.08313364	     -8.81731093	    -22.81775013	     14.45965076	      6.33358828	      0.00000000	    -24.35674772	      0.23480678	      2.30390594	    -23.22480532	      5.00179104	      0.09967491	      0.00000000	    -29.37221315	      1.35075869	    -11.93201654
      5.18000000	      5.54069459	      1.27757709	     12.12740291	     -0.62095146	      0.88061051	      0.19592504	     23.25247678	     -1.22656680	     -9.12949308	    -25.83454835	     15.65684609	      6.11952701	      0.00000000	    -22.76951396	     -1.03344686	      1.34382129	    -27.53327878	      2.64465211	      0.93754369	      0.00000000	    -29.49946849	      2.34106835	    -11.67774864
      5.19000000	      6.02482768	      0.46000083	     12.37755917	     -0.60455921	      0.87984438	      0.19581624	     23.17312104	     -0.27118664	     -9.52720799	    -28.20953343	     17.04088787	      5.82803902	      0.00000000	    -20.95904340	     -2.38432091	      0.87904329	    -32.04580943	      0.09328787	      1.42806453	      0.00000000	    -29.67728324	      3.44080295	    -11.47237513
      5.20000000	      6.44821898	     -0.37884023	     12.79937475	     -0.58857050	      0.87929413	      0.19555784	     22.78501292	      0.71122183	    -10.03620945	    -29.92731991	     18.52187683	      5.53596153	      0.00000000	    -18.82567144	     -3.74921022	      0.87880002	    -36.70773363	     -2.29059504	      1.77324309	      0.00000000	    -29.78027862	      4.57845212	    -11.39370317
      5.21000000	      6.77145985	     -1.23211138	     13.40576535	     -0.57300583	      0.87897878	      0.19513328	     22.14765299	      1.69673357	    -10.68586222	    -30.99383077	     19.98902890	      5.26233337	      0.00000000	    -16.37187446	     -5.06737241	      1.35652913	    -41.40168240	     -4.22123126	      2.03850612	      0.00000000	    -29.74806131	      5.74081431	    -11.38617741
      5.22000000	      6.96824139	     -2.04952160	     14.16257334	     -0.55786152	      0.87896370	      0.19454853	     21.33886082	      2.62862350	    -11.44363336	    -31.49198712	     21.38085230	      5.06622835	      0.00000000	    -13.64628863	     -6.21887236	      2.26825772	    -45.97686751	     -5.50129290	      2.29363998	      0.00000000	    -29.55584828	      6.86221212	    -11.43241785
      5.23000000	      7.05797805	     -2.77981465	     15.00381225	     -0.54307790	      0.87938378	      0.19383871	     20.39335503	      3.46319847	    -12.27539456	    -31.52855322	     22.65029477	      4.97415288	      0.00000000	    -10.75677251	     -7.11616989	      3.45939076	    -50.28114562	     -6.07000783	      2.52138090	      0.00000000	    -29.23307550	      7.87040011	    -11.50451766
      5.24000000	      7.07812999	     -3.38023626	     15.85153104	     -0.52857264	      0.88040064	      0.19304365	     19.31225870	      4.18326943	    -13.11134277	    -31.19521601	     23.76141882	      4.99343309	      0.00000000	     -7.84019058	     -7.69015532	      4.79242500	    -54.17469661	     -5.98191524	      2.70466410	      0.00000000	    -28.84045990	      8.70513445	    -11.54589004
      5.25000000	      7.05433890	     -3.80627928	     16.61897818	     -0.51424959	      0.88212406	      0.19221421	     18.08957491	      4.77198403	    -13.85783034	    -30.56344278	     24.68256240	      5.12023206	      0.00000000	     -5.01428705	     -7.90274880	      6.09741712	    -57.56070589	     -5.34080832	      2.83887869	      0.00000000	    -28.42937282	      9.31164645	    -11.53333072
      5.26000000	      7.00892409	     -4.03640772	     17.23973619	     -0.50002528	      0.88456557	      0.19141711	     16.73196380	      5.22466543	    -14.45573176	    -29.71728631	     25.41336782	      5.30781047	      0.00000000	     -2.36621928	     -7.77163625	      7.22343974	    -60.38813075	     -4.29390759	      2.91522200	      0.00000000	    -28.04793805	      9.64762005	    -11.41941437
      5.27000000	      6.94970537	     -4.06520772	     17.66429852	     -0.48582557	      0.88766475	      0.19070318	     15.23954337	      5.55069080	    -14.83137364	    -28.69247017	     25.95141023	      5.50522242	      0.00000000	      0.05538100	     -7.33867961	      8.06474565	    -62.64251561	     -2.95700251	      2.95983811	      0.00000000	    -27.71772439	      9.70285348	    -11.18672245
      5.28000000	      6.86773945	     -3.90805007	     17.87459671	     -0.47161187	      0.89127038	      0.19010658	     13.63739555	      5.76259077	    -14.93813206	    -27.51935396	     26.30922989	      5.66754256	      0.00000000	      2.25439441	     -6.66301482	      8.57295694	    -64.34516567	     -1.44338647	      2.97313795	      0.00000000	    -27.43365582	      9.49112607	    -10.84007512
